<mxfile host="app.diagrams.net" agent="Mozilla/5.0 (X11; Linux x86_64) AppleWebKit/537.36 (KHTML, like Gecko) Chrome/129.0.0.0 Safari/537.36" version="25.0.1">
  <diagram name="Page-1" id="-95AK33WbEwxsIXHG2Bi">
    <mxGraphModel dx="1158" dy="633" grid="1" gridSize="10" guides="1" tooltips="1" connect="1" arrows="1" fold="1" page="1" pageScale="1" pageWidth="850" pageHeight="1100" math="0" shadow="0">
      <root>
        <mxCell id="0" />
        <mxCell id="1" parent="0" />
        <mxCell id="lguzWhvpEWua67xRzVk2-27" value="" style="rounded=0;whiteSpace=wrap;html=1;" vertex="1" parent="1">
          <mxGeometry x="160" y="30" width="550" height="480" as="geometry" />
        </mxCell>
        <mxCell id="lguzWhvpEWua67xRzVk2-17" value="" style="rounded=0;whiteSpace=wrap;html=1;" vertex="1" parent="1">
          <mxGeometry x="170" y="180" width="530" height="150" as="geometry" />
        </mxCell>
        <mxCell id="lguzWhvpEWua67xRzVk2-7" value="water_table" style="shape=cylinder3;whiteSpace=wrap;html=1;boundedLbl=1;backgroundOutline=1;size=15;" vertex="1" parent="1">
          <mxGeometry x="490" y="380" width="80" height="100" as="geometry" />
        </mxCell>
        <mxCell id="lguzWhvpEWua67xRzVk2-8" value="water_collect.js" style="shape=note;whiteSpace=wrap;html=1;backgroundOutline=1;darkOpacity=0.05;" vertex="1" parent="1">
          <mxGeometry x="580" y="200" width="100" height="100" as="geometry" />
        </mxCell>
        <mxCell id="lguzWhvpEWua67xRzVk2-33" style="edgeStyle=orthogonalEdgeStyle;rounded=0;orthogonalLoop=1;jettySize=auto;html=1;exitX=0;exitY=0.5;exitDx=0;exitDy=0;exitPerimeter=0;startArrow=classic;startFill=1;" edge="1" parent="1" source="lguzWhvpEWua67xRzVk2-9" target="lguzWhvpEWua67xRzVk2-31">
          <mxGeometry relative="1" as="geometry">
            <mxPoint x="830" y="440" as="targetPoint" />
            <Array as="points">
              <mxPoint x="340" y="250" />
              <mxPoint x="340" y="540" />
              <mxPoint x="256" y="540" />
            </Array>
          </mxGeometry>
        </mxCell>
        <mxCell id="lguzWhvpEWua67xRzVk2-35" value="HTTP Requests" style="edgeLabel;html=1;align=center;verticalAlign=middle;resizable=0;points=[];" vertex="1" connectable="0" parent="lguzWhvpEWua67xRzVk2-33">
          <mxGeometry x="-0.0561" y="-2" relative="1" as="geometry">
            <mxPoint y="-146" as="offset" />
          </mxGeometry>
        </mxCell>
        <mxCell id="lguzWhvpEWua67xRzVk2-9" value="server.js" style="shape=note;whiteSpace=wrap;html=1;backgroundOutline=1;darkOpacity=0.05;" vertex="1" parent="1">
          <mxGeometry x="395" y="200" width="80" height="100" as="geometry" />
        </mxCell>
        <mxCell id="lguzWhvpEWua67xRzVk2-16" value="" style="shape=image;html=1;verticalAlign=top;verticalLabelPosition=bottom;labelBackgroundColor=#ffffff;imageAspect=0;aspect=fixed;image=https://cdn1.iconfinder.com/data/icons/fruit-136/64/Fruit_iconfree_Filled_Outline_raspberry-healthy-organic-food-fruit_icon-128.png" vertex="1" parent="1">
          <mxGeometry x="190" width="68" height="68" as="geometry" />
        </mxCell>
        <mxCell id="lguzWhvpEWua67xRzVk2-19" value="" style="edgeStyle=elbowEdgeStyle;rounded=0;orthogonalLoop=1;jettySize=auto;html=1;elbow=vertical;" edge="1" parent="1" source="lguzWhvpEWua67xRzVk2-18" target="lguzWhvpEWua67xRzVk2-8">
          <mxGeometry relative="1" as="geometry" />
        </mxCell>
        <mxCell id="lguzWhvpEWua67xRzVk2-18" value="MQTT&#xa;protocol" style="sketch=0;outlineConnect=0;fontColor=#232F3E;gradientColor=none;strokeColor=#232F3E;fillColor=#ffffff;dashed=0;verticalLabelPosition=bottom;verticalAlign=top;align=center;html=1;fontSize=12;fontStyle=0;aspect=fixed;shape=mxgraph.aws4.resourceIcon;resIcon=mxgraph.aws4.mqtt_protocol;" vertex="1" parent="1">
          <mxGeometry x="800" y="220" width="60" height="60" as="geometry" />
        </mxCell>
        <mxCell id="lguzWhvpEWua67xRzVk2-21" value="ecosystem&lt;div&gt;.config.cjs&lt;/div&gt;" style="shape=note;whiteSpace=wrap;html=1;backgroundOutline=1;darkOpacity=0.05;" vertex="1" parent="1">
          <mxGeometry x="210" y="200" width="80" height="100" as="geometry" />
        </mxCell>
        <mxCell id="lguzWhvpEWua67xRzVk2-22" value="PM2 Instance" style="text;html=1;align=center;verticalAlign=middle;resizable=0;points=[];autosize=1;strokeColor=none;fillColor=none;" vertex="1" parent="1">
          <mxGeometry x="190" y="160" width="100" height="30" as="geometry" />
        </mxCell>
        <mxCell id="lguzWhvpEWua67xRzVk2-23" style="edgeStyle=orthogonalEdgeStyle;rounded=0;orthogonalLoop=1;jettySize=auto;html=1;exitX=0.5;exitY=1;exitDx=0;exitDy=0;exitPerimeter=0;entryX=1;entryY=0.5;entryDx=0;entryDy=0;entryPerimeter=0;" edge="1" parent="1" source="lguzWhvpEWua67xRzVk2-8" target="lguzWhvpEWua67xRzVk2-7">
          <mxGeometry relative="1" as="geometry" />
        </mxCell>
        <mxCell id="lguzWhvpEWua67xRzVk2-24" value="Updates" style="edgeLabel;html=1;align=center;verticalAlign=middle;resizable=0;points=[];" vertex="1" connectable="0" parent="lguzWhvpEWua67xRzVk2-23">
          <mxGeometry x="-0.1895" y="2" relative="1" as="geometry">
            <mxPoint as="offset" />
          </mxGeometry>
        </mxCell>
        <mxCell id="lguzWhvpEWua67xRzVk2-25" style="edgeStyle=orthogonalEdgeStyle;rounded=0;orthogonalLoop=1;jettySize=auto;html=1;exitX=0;exitY=0.5;exitDx=0;exitDy=0;exitPerimeter=0;entryX=0.5;entryY=1;entryDx=0;entryDy=0;entryPerimeter=0;" edge="1" parent="1" source="lguzWhvpEWua67xRzVk2-7" target="lguzWhvpEWua67xRzVk2-9">
          <mxGeometry relative="1" as="geometry" />
        </mxCell>
        <mxCell id="lguzWhvpEWua67xRzVk2-26" value="Accesses" style="edgeLabel;html=1;align=center;verticalAlign=middle;resizable=0;points=[];" vertex="1" connectable="0" parent="lguzWhvpEWua67xRzVk2-25">
          <mxGeometry x="0.0703" relative="1" as="geometry">
            <mxPoint as="offset" />
          </mxGeometry>
        </mxCell>
        <mxCell id="lguzWhvpEWua67xRzVk2-28" value="Crontab Jobs" style="shape=note;whiteSpace=wrap;html=1;backgroundOutline=1;darkOpacity=0.05;" vertex="1" parent="1">
          <mxGeometry x="590" y="40" width="80" height="100" as="geometry" />
        </mxCell>
        <mxCell id="lguzWhvpEWua67xRzVk2-29" style="edgeStyle=orthogonalEdgeStyle;rounded=0;orthogonalLoop=1;jettySize=auto;html=1;exitX=0.5;exitY=1;exitDx=0;exitDy=0;exitPerimeter=0;entryX=0.5;entryY=0;entryDx=0;entryDy=0;entryPerimeter=0;" edge="1" parent="1" source="lguzWhvpEWua67xRzVk2-28" target="lguzWhvpEWua67xRzVk2-8">
          <mxGeometry relative="1" as="geometry" />
        </mxCell>
        <mxCell id="lguzWhvpEWua67xRzVk2-30" value="Executes every 10 Min" style="edgeLabel;html=1;align=center;verticalAlign=middle;resizable=0;points=[];" vertex="1" connectable="0" parent="lguzWhvpEWua67xRzVk2-29">
          <mxGeometry x="-0.4" y="-1" relative="1" as="geometry">
            <mxPoint as="offset" />
          </mxGeometry>
        </mxCell>
        <mxCell id="lguzWhvpEWua67xRzVk2-31" value="" style="dashed=0;outlineConnect=0;html=1;align=center;labelPosition=center;verticalLabelPosition=bottom;verticalAlign=top;shape=mxgraph.weblogos.arduino;fillColor=#36868D;strokeColor=none" vertex="1" parent="1">
          <mxGeometry x="222.60000000000002" y="600" width="67.4" height="32" as="geometry" />
        </mxCell>
        <mxCell id="lguzWhvpEWua67xRzVk2-34" style="edgeStyle=orthogonalEdgeStyle;rounded=0;orthogonalLoop=1;jettySize=auto;html=1;exitX=0.5;exitY=0;exitDx=0;exitDy=0;exitPerimeter=0;endArrow=oval;endFill=1;startArrow=classic;startFill=1;" edge="1" parent="1" source="lguzWhvpEWua67xRzVk2-32">
          <mxGeometry relative="1" as="geometry">
            <mxPoint x="340" y="540" as="targetPoint" />
            <Array as="points">
              <mxPoint x="435" y="540" />
            </Array>
          </mxGeometry>
        </mxCell>
        <mxCell id="lguzWhvpEWua67xRzVk2-32" value="" style="sketch=0;points=[[0.015,0.015,0],[0.985,0.015,0],[0.985,0.985,0],[0.015,0.985,0],[0.25,0,0],[0.5,0,0],[0.75,0,0],[1,0.25,0],[1,0.5,0],[1,0.75,0],[0.75,1,0],[0.5,1,0],[0.25,1,0],[0,0.75,0],[0,0.5,0],[0,0.25,0]];verticalLabelPosition=bottom;html=1;verticalAlign=top;aspect=fixed;align=center;pointerEvents=1;shape=mxgraph.cisco19.rect;prIcon=unity;fillColor=#FAFAFA;strokeColor=#005073;" vertex="1" parent="1">
          <mxGeometry x="410" y="591" width="50" height="50" as="geometry" />
        </mxCell>
      </root>
    </mxGraphModel>
  </diagram>
</mxfile>
